# xmcd
#
# Track frame offsets:
#	150
#	14349
#	24095
#	43158
#	55400
#	70095
#	86727
#	97275
#	113475
#	126644
#	142297
#	153927
#	167352
#	174323
#	185992
#	199071
#	211254
#
# Disc length: 3004 seconds
#
# Revision: 1
# Processed by: cddbd v1.5.2PL0 Copyright (c) Steve Scherf et al.
# Submitted via: audiograbber 1.83.01
#
DISCID=f40bba11
DTITLE=Squirrel Butter - Banjo Clog
DYEAR=2011
DGENRE=Old-Time
TTITLE0=Honey, Allow Me One More Chance
TTITLE1=Baptist Shout
TTITLE2=Good Luck Soul
TTITLE3=Turkey in the Pea Patch
TTITLE4=Look Who's Listening Now
TTITLE5=Whiskey and Wine
TTITLE6=Old Skedaddalink
TTITLE7=Blue-Eyed Elaine
TTITLE8=Gal From Baltimore
TTITLE9=Farmer's Daughter
TTITLE10=Knoxville Rag
TTITLE11=Walking the Floor
TTITLE12=Shady Grove
TTITLE13=Native Home
TTITLE14=Banjo Clog - You Don't Know My Darling
TTITLE15=Little Kitchen Waltz
TTITLE16=Highway Home
EXTD=
EXTT0=
EXTT1=
EXTT2=
EXTT3=
EXTT4=
EXTT5=
EXTT6=
EXTT7=
EXTT8=
EXTT9=
EXTT10=
EXTT11=
EXTT12=
EXTT13=
EXTT14=
EXTT15=
EXTT16=
PLAYORDER=
